<svg xmlns="http://www.w3.org/2000/svg" id="google-play-badge" width="135" height="40" viewBox="0 0 135 40">
    <path id="Path_3640" data-name="Path 3640" d="M5,0H130a5,5,0,0,1,5,5V35a5,5,0,0,1-5,5H5a5,5,0,0,1-5-5V5A5,5,0,0,1,5,0Z"/>
    <path id="Path_3572" data-name="Path 3572" d="M140,10.8a4.2,4.2,0,0,1,4.2,4.2V45a4.2,4.2,0,0,1-4.2,4.2H15A4.2,4.2,0,0,1,10.8,45V15A4.2,4.2,0,0,1,15,10.8H140m0-.8H15a5.015,5.015,0,0,0-5,5V45a5.015,5.015,0,0,0,5,5H140a5.015,5.015,0,0,0,5-5V15a5.015,5.015,0,0,0-5-5Z" transform="translate(-10 -10)" fill="#a6a6a6"/>
    <path id="Path_3639" data-name="Path 3639" d="M6.377-2.757a2.707,2.707,0,0,1-.746,2,2.889,2.889,0,0,1-2.2.888A3.009,3.009,0,0,1,1.215-.771,3.029,3.029,0,0,1,.31-3a3.029,3.029,0,0,1,.905-2.229,3.009,3.009,0,0,1,2.212-.905A3.33,3.33,0,0,1,4.676-5.9a2.5,2.5,0,0,1,.964.662l-.553.553a1.859,1.859,0,0,0-.716-.524A2.368,2.368,0,0,0,3.427-5.4a2.257,2.257,0,0,0-1.659.679A2.362,2.362,0,0,0,1.1-3a2.362,2.362,0,0,0,.67,1.718A2.257,2.257,0,0,0,3.427-.6a2.231,2.231,0,0,0,1.492-.5,2,2,0,0,0,.687-1.383H3.427V-3.21H6.335A2.574,2.574,0,0,1,6.377-2.757ZM10.986-6v.737H8.254v1.9h2.464v.721H8.254v1.9h2.732V0h-3.5V-6Zm3.251.737V0h-.771V-5.263H11.791V-6h4.123v.737ZM19.668,0H18.9V-6h.771Zm3.419-5.263V0h-.771V-5.263H20.64V-6h4.123v.737ZM33.453-3a3.041,3.041,0,0,1-.888,2.229,2.972,2.972,0,0,1-2.2.905,2.954,2.954,0,0,1-2.2-.905A3.041,3.041,0,0,1,27.285-3a3.041,3.041,0,0,1,.888-2.229,2.954,2.954,0,0,1,2.2-.905,2.941,2.941,0,0,1,2.2.913A3.031,3.031,0,0,1,33.453-3Zm-5.38,0a2.376,2.376,0,0,0,.654,1.718A2.2,2.2,0,0,0,30.369-.6,2.175,2.175,0,0,0,32-1.282,2.342,2.342,0,0,0,32.665-3,2.342,2.342,0,0,0,32-4.718,2.175,2.175,0,0,0,30.369-5.4a2.2,2.2,0,0,0-1.642.679A2.376,2.376,0,0,0,28.073-3ZM35.3,0h-.771V-6h.939l2.916,4.668h.034l-.034-1.156V-6h.771V0h-.8L35.3-4.894h-.034L35.3-3.737Z" transform="translate(41.042 13)" fill="#fff" stroke="#fff" stroke-width="0.2"/>
    <path id="Path_3573" data-name="Path 3573" d="M78.136,31.752A4.253,4.253,0,1,0,82.4,36.005,4.192,4.192,0,0,0,78.136,31.752Zm0,6.83a2.584,2.584,0,1,1,2.4-2.577A2.46,2.46,0,0,1,78.136,38.582Zm-9.313-6.83a4.253,4.253,0,1,0,4.269,4.253A4.192,4.192,0,0,0,68.823,31.752Zm0,6.83a2.584,2.584,0,1,1,2.4-2.577A2.46,2.46,0,0,1,68.823,38.582ZM57.744,33.057v1.8h4.317a3.765,3.765,0,0,1-.982,2.271,4.419,4.419,0,0,1-3.335,1.322,4.8,4.8,0,0,1,0-9.6A4.6,4.6,0,0,1,61,30.141l1.273-1.273a6.3,6.3,0,0,0-4.527-1.821,6.606,6.606,0,1,0,0,13.211A6.04,6.04,0,0,0,62.351,38.4a5.962,5.962,0,0,0,1.563-4.221,5.829,5.829,0,0,0-.1-1.127Zm45.308,1.4a3.953,3.953,0,0,0-3.641-2.706A4.041,4.041,0,0,0,95.4,36.005a4.162,4.162,0,0,0,4.22,4.253,4.23,4.23,0,0,0,3.545-1.885l-1.45-.967a2.429,2.429,0,0,1-2.095,1.176,2.164,2.164,0,0,1-2.062-1.288l5.687-2.353Zm-5.8,1.418A2.333,2.333,0,0,1,99.475,33.4a1.645,1.645,0,0,1,1.579.9ZM92.629,40H94.5V27.5H92.629Zm-3.061-7.3H89.5a2.948,2.948,0,0,0-2.239-.95,4.257,4.257,0,0,0,0,8.506,2.9,2.9,0,0,0,2.239-.967h.065V39.9c0,1.628-.87,2.5-2.272,2.5a2.354,2.354,0,0,1-2.143-1.515l-1.627.677a4.053,4.053,0,0,0,3.77,2.513c2.191,0,4.044-1.289,4.044-4.43V32.009H89.568Zm-2.143,5.88a2.587,2.587,0,0,1,0-5.155A2.4,2.4,0,0,1,89.7,36.021,2.376,2.376,0,0,1,87.425,38.582ZM111.806,27.5h-4.471V40H109.2V35.264h2.606a3.888,3.888,0,1,0,0-7.765Zm.048,6.025H109.2V29.239h2.654a2.143,2.143,0,1,1,0,4.285Zm11.532-1.795a3.5,3.5,0,0,0-3.329,1.913l1.656.692a1.768,1.768,0,0,1,1.705-.917,1.8,1.8,0,0,1,1.962,1.609v.128a4.127,4.127,0,0,0-1.946-.482c-1.785,0-3.6.981-3.6,2.814a2.889,2.889,0,0,0,3.1,2.751,2.633,2.633,0,0,0,2.381-1.223h.064v.965h1.8V35.186C127.181,32.967,125.525,31.729,123.386,31.729Zm-.225,6.851c-.612,0-1.464-.306-1.464-1.061,0-.965,1.062-1.335,1.978-1.335a3.326,3.326,0,0,1,1.7.418A2.262,2.262,0,0,1,123.161,38.58ZM133.743,32l-2.139,5.42h-.064L129.32,32h-2.01l3.329,7.575-1.9,4.214h1.947L135.818,32Zm-16.807,8H118.8V27.5h-1.866Z" transform="translate(-10 -10)" fill="#fff"/>
    <path id="Path_3574" data-name="Path 3574" d="M30.717,29.424l-10.646,11.3v.007a2.879,2.879,0,0,0,4.237,1.734l.034-.02,11.983-6.914Z" transform="translate(-10 -10)" fill="#ea4335"/>
    <path id="Path_3575" data-name="Path 3575" d="M41.488,27.5l-.01-.007-5.174-3-5.828,5.188,5.849,5.848,5.146-2.969a2.878,2.878,0,0,0,.017-5.06Z" transform="translate(-10 -10)" fill="#fbbc04"/>
    <path id="Path_3576" data-name="Path 3576" d="M20.07,19.277a2.823,2.823,0,0,0-.1.74V39.985a2.769,2.769,0,0,0,.1.739L31.083,29.713Z" transform="translate(-10 -10)" fill="#4285f4"/>
    <path id="Path_3577" data-name="Path 3577" d="M30.8,30l5.51-5.509-11.97-6.94a2.881,2.881,0,0,0-4.265,1.722v0Z" transform="translate(-10 -10)" fill="#34a853"/>
</svg>
